<svg xmlns="http://www.w3.org/2000/svg" width="16.088" height="13.131" viewBox="0 0 16.088 13.131"><path d="M6.5 2c-3.59 0-6.5 2.238-6.5 5 0 1.354.701 2.585 1.839 3.485-.066.918-.287 2.041-.927 2.646 1.274 0 2.576-.798 3.399-1.422.684.188 1.42.291 2.189.291 3.59 0 6.5-2.237 6.5-5 0-2.762-2.91-5-6.5-5zM15.14 7.487c.547-.731.86-1.581.86-2.487 0-2.762-2.91-5-6.5-5-1.58 0-3.028.434-4.154 1.154.53-.1 1.084-.154 1.654-.154 3.866 0 7 2.463 7 5.5 0 1.197-.485 2.306-1.312 3.207.821.624 2.125 1.424 3.399 1.424-.906-.86-.971-2.766-.947-3.644z"/></svg>