<?xml version="1.0" encoding="iso-8859-1"?>
<!-- Generator: Adobe Illustrator 16.0.0, SVG Export Plug-In . SVG Version: 6.00 Build 0)  -->
<!DOCTYPE svg PUBLIC "-//W3C//DTD SVG 1.1//EN" "http://www.w3.org/Graphics/SVG/1.1/DTD/svg11.dtd">
<svg version="1.1" xmlns="http://www.w3.org/2000/svg" xmlns:xlink="http://www.w3.org/1999/xlink" x="0px" y="0px"
	 width="24.875px" height="25.53px" viewBox="0 0 24.875 25.53" style="enable-background:new 0 0 24.875 25.53;"
	 xml:space="preserve">
<g id="c179_text">
	<path style="fill:#000000;" d="M24.87,6.274c-0.014,0.23-0.045,0.389-0.087,0.467c-0.045,0.084-0.176,0.145-0.392,0.183
		c-0.469,0.104-0.781-0.074-0.935-0.533c-0.545-1.69-1.194-2.812-1.944-3.374c-1.041-0.773-2.862-1.161-5.469-1.161
		c-1.054,0-1.633,0.115-1.734,0.343c-0.036,0.075-0.057,0.184-0.057,0.324v18.999c0,0.812,0.188,1.383,0.571,1.709
		c0.382,0.32,1.069,0.731,2.201,0.999c0.483,0.103,0.97,0.2,1.034,0.239c0.46,0,0.504,1.057-0.376,1.057
		c-0.025,0.016-10.375-0.008-10.375-0.008s-0.723-0.439-0.074-1.023C7.504,24.374,8,24.152,8,24.152s1.83-0.614,2.211-1.009
		c0.434-0.445,0.648-1.164,0.648-2.154V2.522c0-0.369-0.229-0.585-0.687-0.647c-0.049-0.015-0.425-0.02-1.122-0.02
		c-2.415,0-4.191,0.418-5.338,1.259C2.848,3.736,2.083,4.878,1.409,6.546C1.192,7.066,0.892,7.235,0.512,7.059
		C0.08,6.958-0.077,6.72,0.035,6.354C0.48,4.98,0.703,3.044,0.703,0.54c0-0.292,0.387-0.586,1.163-0.533l21.366,0.058
		c0.709-0.104,1.096,0.012,1.16,0.343C24.748,2.097,24.906,4.053,24.87,6.274z"/>
</g>
<g id="Capa_1">
</g>
</svg>
