<svg xmlns="http://www.w3.org/2000/svg" width="26" height="26" viewBox="0 0 26 26"><path d="M25.312 13.001v.947c0 .524-.423.947-.947.947h-6.629c-.524 0-.947-.423-.947-.947v-.947c0-.524.423-.947.947-.947h6.629c.524 0 .947.423.947.947zm-9.548 7.895c.05.203.058.358.026.458-.035.1-.143.153-.326.153h-3.105c-.284 0-.476-.065-.577-.191-.1-.129-.192-.33-.275-.599l-.804-2.982h-5.068l-.838 3.057c-.084.272-.192.461-.326.562-.133.1-.317.153-.551.153h-2.778c-.184 0-.309-.038-.375-.115-.068-.076-.06-.258.025-.548l4.832-15.574c.083-.238.183-.421.3-.55.116-.126.342-.191.677-.191h3.155c.35 0 .58.07.688.205.108.136.204.323.288.561l5.032 15.601zm-5.826-6.001l-1.687-6.254h-.124l-1.714 6.254h3.525z"/></svg>