<svg xmlns="http://www.w3.org/2000/svg" width="26" height="26" viewBox="0 0 26 26"><path d="M25.5 13.001v.961c0 .532-.43.961-.961.961h-1.923v1.923c0 .532-.43.961-.961.961h-.961c-.532 0-.961-.43-.961-.961v-1.923h-1.923c-.532 0-.961-.43-.961-.961v-.961c0-.532.43-.961.961-.961h1.923v-1.923c0-.532.43-.961.961-.961h.961c.532 0 .961.43.961.961v1.923h1.923c.531-.001.961.429.961.961zm-9.694 8.016c.051.206.059.364.026.465-.036.102-.145.156-.331.156h-3.153c-.288 0-.484-.066-.586-.194-.102-.131-.195-.335-.279-.608l-.816-3.028h-5.144l-.85 3.104c-.086.276-.195.468-.331.57-.136.102-.322.156-.56.156h-2.821c-.187 0-.314-.038-.381-.117-.069-.077-.061-.262.025-.557l4.907-15.812c.085-.241.186-.428.305-.559.117-.128.346-.194.687-.194h3.203c.356 0 .588.071.699.209.11.138.207.328.292.569l5.108 15.84zm-5.915-6.093l-1.712-6.35h-.126l-1.74 6.35h3.578z"/></svg>