<?xml version="1.0" encoding="utf-8"?>
<!-- Generator: Adobe Illustrator 17.0.0, SVG Export Plug-In . SVG Version: 6.00 Build 0)  -->
<!DOCTYPE svg PUBLIC "-//W3C//DTD SVG 1.1//EN" "http://www.w3.org/Graphics/SVG/1.1/DTD/svg11.dtd">
<svg version="1.1" id="Layer_1" xmlns="http://www.w3.org/2000/svg" xmlns:xlink="http://www.w3.org/1999/xlink" x="0px" y="0px"
	 width="26px" height="26px" viewBox="0 0 26 26" enable-background="new 0 0 26 26" xml:space="preserve">
<path d="M25.5,13.001v0.961c0,0.532-0.43,0.961-0.961,0.961h-1.923v1.923c0,0.532-0.43,0.961-0.961,0.961h-0.961
	c-0.532,0-0.961-0.43-0.961-0.961v-1.923h-1.923c-0.532,0-0.961-0.43-0.961-0.961v-0.961c0-0.532,0.43-0.961,0.961-0.961h1.923
	v-1.923c0-0.532,0.43-0.961,0.961-0.961h0.961c0.532,0,0.961,0.43,0.961,0.961v1.923h1.923C25.07,12.039,25.5,12.469,25.5,13.001z
	 M15.806,21.017c0.051,0.206,0.059,0.364,0.026,0.465c-0.036,0.102-0.145,0.156-0.331,0.156h-3.153
	c-0.288,0-0.484-0.066-0.586-0.194c-0.102-0.131-0.195-0.335-0.279-0.608l-0.816-3.028H5.523l-0.85,3.104
	c-0.086,0.276-0.195,0.468-0.331,0.57c-0.136,0.102-0.322,0.156-0.56,0.156H0.961c-0.187,0-0.314-0.038-0.381-0.117
	c-0.069-0.077-0.061-0.262,0.025-0.557L5.512,5.152c0.085-0.241,0.186-0.428,0.305-0.559c0.117-0.128,0.346-0.194,0.687-0.194h3.203
	c0.356,0,0.588,0.071,0.699,0.209c0.11,0.138,0.207,0.328,0.292,0.569L15.806,21.017z M9.891,14.924l-1.712-6.35H8.053l-1.74,6.35
	H9.891z"/>
</svg>
