<svg xmlns="http://www.w3.org/2000/svg" width="512" height="512" viewBox="0 0 512 512"><path d="M416 0h-320v224h320v-224zm-32 192h-256v-160h256v160zM448 224v32h-384v-32c-35.344 0-64 28.656-64 64v192c0 17.688 14.313 32 32 32h448c17.688 0 32-14.313 32-32v-192c0-35.344-28.656-64-64-64zm-32 224c0 17.688-14.313 32-32 32h-256c-17.688 0-32-14.313-32-32v-32h320v32zm48-96h-32c-8.844 0-16-7.156-16-16s7.156-16 16-16h32c8.844 0 16 7.156 16 16s-7.156 16-16 16zM160 64h192v32h-192zM160 128h192v32h-192z"/></svg>