<svg xmlns="http://www.w3.org/2000/svg" width="16" height="16.007" viewBox="0 0 16 16.007"><path d="M14.529 0h-5.338c-.152.008-.5.247-.545.292l-6.365 6.364c-.39.39-.39 1.022 0 1.412l.794.794-.794.794c-.39.391-.39 1.022 0 1.412l4.646 4.646c.195.195.45.291.706.291.256 0 .511-.096.706-.291l6.364-6.365c.046-.045.297-.353.297-.545v-8.307c.014-.279-.197-.497-.471-.497zm-.529 8.634l-.003.009-6.362 6.364-4.646-4.643.794-.794 3.145 3.145c.195.195.45.293.706.293.256 0 .511-.098.706-.293l5.66-5.661v1.58zm-.5-6.638c-.275 0-.5-.224-.5-.5s.225-.5.5-.5.5.224.5.5-.225.5-.5.5z"/></svg>